<mxfile host="app.diagrams.net" modified="2023-09-23T16:17:20.477Z" agent="Mozilla/5.0 (Windows NT 10.0; Win64; x64) AppleWebKit/537.36 (KHTML, like Gecko) Chrome/116.0.0.0 Safari/537.36" version="21.1.8" etag="61qEN_MREDggdqZ5utXg" type="github">
  <diagram name="페이지-1" id="brf2gDq2IS7utrXP4Lgy">
    <mxGraphModel>
      <root>
        <mxCell id="0" />
        <mxCell id="1" parent="0" />
      </root>
    </mxGraphModel>
  </diagram>
</mxfile>
